<svg xmlns="http://www.w3.org/2000/svg" width="26.82" height="18.955" viewBox="0 0 26.82 18.955"><g transform="translate(-1326.001)"><g transform="translate(1326.001)"><path d="M1349.235,0h-19.648A3.59,3.59,0,0,0,1326,3.586V15.369a3.59,3.59,0,0,0,3.586,3.586h19.648a3.59,3.59,0,0,0,3.586-3.586V3.586A3.59,3.59,0,0,0,1349.235,0Zm1.837,15.369a1.839,1.839,0,0,1-1.837,1.837h-19.648a1.839,1.839,0,0,1-1.837-1.837V6.279h23.322Zm0-10.839H1327.75V3.586a1.839,1.839,0,0,1,1.837-1.837h19.648a1.839,1.839,0,0,1,1.837,1.837V4.53Z" transform="translate(-1326.001)" fill="#c1c7d0"/></g><g transform="translate(1340.569 8.603)"><g transform="translate(0)"><path d="M1610.311,164.227a3.338,3.338,0,0,1-2.867,0,4.978,4.978,0,1,0,2.867,0Zm0,4.917a1.571,1.571,0,0,1-.923-.3l-.511-.367-.511.367a1.584,1.584,0,1,1,0-2.574l.511.367.511-.367a1.584,1.584,0,1,1,.923,2.871Z" transform="translate(-1604.111 -164.227)" fill="#c1c7d0"/></g></g><g transform="translate(1329.594 9.456)"><g transform="translate(0)"><rect width="6.183" height="1.749" fill="#c1c7d0"/></g></g><g transform="translate(1329.594 12.667)"><g transform="translate(0)"><rect width="8.163" height="1.749" fill="#c1c7d0"/></g></g></g></svg>