<svg xmlns="http://www.w3.org/2000/svg" width="21.939" height="22.627" viewBox="0 0 21.939 22.627"><path d="M1411.112,858.814a10.844,10.844,0,0,0-7.909-3.482h-.034a10.715,10.715,0,0,0-7.734,3.3,11.4,11.4,0,0,0-3.218,7.984,11.523,11.523,0,0,0,3.369,8.165.108.108,0,0,0,.021.028c.038.037.076.071.114.1s.056.048.084.075l.116.107c.135.125.276.255.422.377.109.088.212.168.3.235.172.132.35.269.536.4.1.066.2.131.308.2l.113.071c.152.094.309.192.471.281.111.061.225.115.335.169l.114.055.044.022c.146.072.3.146.451.213.126.054.253.1.376.144l.133.048.117.044c.123.046.238.089.365.129.148.046.3.084.448.121l.115.029.142.037c.105.028.215.057.328.08.189.039.383.066.57.092l.084.012.147.023c.083.014.17.028.258.037a10.428,10.428,0,0,0,2.171,0c.089-.009.175-.023.259-.037l.146-.023.084-.012c.188-.026.381-.053.57-.092.091-.019.183-.043.271-.066.065-.017.132-.035.2-.051l.114-.029c.148-.037.3-.075.449-.121.117-.037.233-.08.345-.122l.136-.051.09-.032c.138-.05.281-.1.418-.16s.264-.121.392-.184l.1-.051.114-.055c.11-.053.224-.108.335-.169.16-.088.316-.185.467-.279l.046-.029.118-.074c.087-.053.176-.108.262-.168.185-.125.362-.262.535-.4.042-.034.085-.066.127-.1.058-.044.118-.089.176-.137.2-.164.383-.337.538-.485.027-.026.055-.05.083-.074s.076-.066.11-.1a.125.125,0,0,0,.025-.031,11.55,11.55,0,0,0,.325-15.966Zm-6.438,7.31a.093.093,0,0,0-.033.016,3.145,3.145,0,0,1-.624.271l-.052.017c-.022.008-.043.015-.066.021-.071.019-.148.033-.223.046l-.009,0a2.979,2.979,0,0,1-.44.046h-.086a2.97,2.97,0,0,1-.443-.046l-.026,0c-.068-.013-.14-.026-.208-.044-.019-.005-.038-.011-.057-.018l-.059-.019a3.145,3.145,0,0,1-.632-.276l-.021-.009a3.078,3.078,0,0,1-1.418-1.868,3.178,3.178,0,0,1,.275-2.364,2.971,2.971,0,0,1,4.107-1.187,3.076,3.076,0,0,1,1.426,1.872,3.177,3.177,0,0,1-.275,2.364A3.062,3.062,0,0,1,1404.675,866.124Zm-3.475,1.761a4.548,4.548,0,0,0,3.968,0,6.329,6.329,0,0,1,4.139,5.863l0,0-.063.058h0c-.126.114-.267.233-.431.364-.082.065-.17.134-.261.2-.134.1-.273.2-.424.3-.095.063-.2.128-.318.2-.136.08-.275.16-.413.238s-.262.133-.375.187c-.154.074-.285.133-.4.181s-.261.1-.423.158l-.067.024c-.106.038-.216.077-.325.11-.137.042-.282.078-.423.113l-.05.012-.12.03c-.083.021-.169.043-.254.06-.172.034-.351.059-.525.084l-.031,0-.126.019c-.063.01-.129.02-.192.027-.318.031-.611.047-.9.047s-.58-.015-.9-.047c-.063-.007-.129-.017-.192-.026l-.126-.019-.031,0c-.174-.024-.353-.049-.525-.084-.085-.017-.172-.039-.255-.06l-.118-.029c-.147-.037-.314-.078-.474-.126-.108-.033-.218-.073-.325-.11l-.067-.024c-.13-.046-.281-.1-.424-.159s-.272-.119-.4-.181c-.146-.069-.261-.126-.374-.186-.15-.08-.285-.158-.412-.238s-.224-.138-.319-.2c-.152-.1-.29-.2-.425-.3-.089-.066-.178-.135-.26-.2-.155-.123-.3-.246-.431-.364l-.005,0a.762.762,0,0,1-.057-.051l0,0A6.328,6.328,0,0,1,1401.2,867.885Zm5.2-8.069a4.656,4.656,0,0,0-6.714.3,5.016,5.016,0,0,0-.08,6.537,8.063,8.063,0,0,0-4.055,5.323,9.72,9.72,0,0,1,2.3-13.093,8.949,8.949,0,0,1,6.884-1.622,9.137,9.137,0,0,1,5.98,3.873,9.742,9.742,0,0,1,.108,10.844,8.063,8.063,0,0,0-4.055-5.323A5.017,5.017,0,0,0,1406.4,859.817Z" transform="translate(-1392.217 -855.332)"/></svg>