<svg xmlns="http://www.w3.org/2000/svg" width="21.939" height="21.938" viewBox="0 0 21.939 21.938"><path d="M1411.112,858.708a11,11,0,0,0-7.909-3.376h-.034a10.953,10.953,0,0,0-10.952,10.939,11,11,0,0,0,3.369,7.916.107.107,0,0,0,.021.027c.038.036.076.069.114.1s.056.047.084.072l.116.1c.135.121.276.247.422.366.109.086.212.163.3.228.172.128.35.261.536.383.1.064.2.127.308.19l.113.069c.152.092.309.186.471.272.111.059.225.112.335.163l.114.054.044.021c.146.07.3.142.451.206.126.052.253.1.376.14l.133.047.117.042c.123.044.238.087.365.125.148.044.3.081.448.117l.115.028.142.036c.105.027.215.055.328.077.189.038.383.064.57.089l.084.011.147.023c.083.013.17.028.258.036.37.036.735.055,1.085.055s.715-.018,1.085-.055c.089-.008.175-.023.259-.036l.146-.023.084-.011c.188-.025.381-.051.57-.089.091-.018.183-.042.271-.064.065-.017.132-.034.2-.049l.114-.028c.148-.036.3-.073.449-.117.117-.036.233-.078.345-.118l.136-.049.09-.031c.138-.048.281-.1.418-.155s.264-.117.392-.178l.1-.049.114-.054c.11-.051.224-.1.335-.163.16-.085.316-.179.467-.27l.046-.028.118-.071c.087-.051.176-.1.262-.163.185-.122.362-.254.535-.383.042-.033.085-.064.127-.095.058-.042.118-.086.176-.133.2-.159.383-.327.538-.47.027-.025.055-.048.083-.072s.076-.064.11-.1a.122.122,0,0,0,.025-.03,10.953,10.953,0,0,0,.325-15.479Zm-6.438,7.088a.1.1,0,0,0-.033.016,3.193,3.193,0,0,1-.624.263l-.052.017c-.022.007-.043.014-.066.02-.071.018-.148.032-.223.045l-.009,0a3.077,3.077,0,0,1-.44.044h-.086a3.069,3.069,0,0,1-.443-.044l-.026,0c-.068-.012-.14-.025-.208-.042-.019,0-.038-.011-.057-.018l-.059-.018a3.2,3.2,0,0,1-.632-.267l-.021-.009a3.016,3.016,0,1,1,2.978,0ZM1401.2,867.5a4.677,4.677,0,0,0,3.968,0,6.151,6.151,0,0,1,4.139,5.684l0,0-.063.057h0c-.126.111-.267.226-.431.353-.082.063-.17.13-.261.2-.134.1-.273.191-.424.287-.095.061-.2.124-.318.194-.136.078-.275.155-.413.231s-.262.129-.375.181c-.154.071-.285.129-.4.175s-.261.1-.423.154l-.067.023c-.106.037-.216.075-.325.107-.137.041-.282.076-.423.11l-.05.012-.12.029c-.083.02-.169.042-.254.058-.172.033-.351.058-.525.081l-.031,0-.126.018c-.063.009-.129.019-.192.026-.318.031-.611.045-.9.045s-.58-.015-.9-.045c-.063-.006-.129-.016-.192-.026l-.126-.018-.031,0c-.174-.023-.353-.048-.525-.081-.085-.017-.172-.038-.255-.058l-.118-.029c-.147-.036-.314-.076-.474-.122-.108-.032-.218-.07-.325-.107l-.067-.023c-.13-.045-.281-.1-.424-.154s-.272-.116-.4-.175c-.146-.067-.261-.123-.374-.181-.15-.078-.285-.153-.412-.231s-.224-.134-.319-.195c-.152-.1-.29-.19-.425-.288-.089-.064-.178-.131-.26-.194-.155-.12-.3-.238-.431-.353l-.005,0c-.018-.014-.037-.031-.057-.05l0,0A6.15,6.15,0,0,1,1401.2,867.5Zm5.2-7.823a4.752,4.752,0,0,0-6.794,6.624,7.853,7.853,0,0,0-4.055,5.16,9.226,9.226,0,1,1,16.865-5.167,9.115,9.115,0,0,1-1.595,5.168,7.853,7.853,0,0,0-4.055-5.161A4.758,4.758,0,0,0,1406.4,859.68Z" transform="translate(-1392.217 -855.332)" fill="#c1c7d0"/></svg>