<svg xmlns="http://www.w3.org/2000/svg" width="25.812" height="24.234" viewBox="0 0 25.812 24.234"><g transform="translate(-842.501 -553.252)"><path d="M866.7,799.706a2.339,2.339,0,0,0-2.643.805L861.392,804a2.584,2.584,0,0,0-2.576-2.423h-4.946a5.184,5.184,0,0,0-5.6-.691.828.828,0,0,0-.827-.813h-4.11a.828.828,0,0,0-.827.827v10.024a.828.828,0,0,0,.827.827h4.11a.828.828,0,0,0,.827-.827v-.677h12.248A5.316,5.316,0,0,0,865,807.8l2.934-4.564a2.365,2.365,0,0,0,.377-1.282A2.339,2.339,0,0,0,866.7,799.706Zm-6.19,8.888H848.265V802.83l.22-.157a3.529,3.529,0,0,1,4.495.328.823.823,0,0,0,.573.231h5.263a.927.927,0,0,1,0,1.855h-5.363a.827.827,0,1,0,0,1.654h6.032a3.857,3.857,0,0,0,3.046-1.505l2.844-3.719a.716.716,0,0,1,1.285.435.714.714,0,0,1-.114.387l-2.934,4.564A3.669,3.669,0,0,1,860.513,808.594Zm-13.9-6.867v8.37h-2.456v-8.37Z" transform="translate(0 -234.266)" fill="#c1c7d0"/><path d="M1064.917,604.623h0a2.479,2.479,0,0,0,1.153.45v.237a.563.563,0,1,0,1.125,0v-.294a2.073,2.073,0,0,0,1.448-1.629,1.822,1.822,0,0,0-1.238-2.062l-.21-.076v-1.416a.522.522,0,0,1,.11.077.564.564,0,0,0,.79.051.562.562,0,0,0,.055-.794,1.724,1.724,0,0,0-.955-.515v-.19a.563.563,0,0,0-1.125,0v.248l-.039.011a1.721,1.721,0,0,0-1.181,1.348,1.537,1.537,0,0,0,.511,1.513,3.6,3.6,0,0,0,.709.42v1.932a1.541,1.541,0,0,1-.537-.253.562.562,0,1,0-.616.941Zm1.039-4.345a.706.706,0,0,1,.114-.271v.7l-.015-.012A.443.443,0,0,1,1065.956,600.278Zm1.24,3.5V602.46a.673.673,0,0,1,.338.74A.939.939,0,0,1,1067.2,603.775Z" transform="translate(-211.13 -42.446)" fill="#c1c7d0"/><path d="M985.318,565.275a6.188,6.188,0,1,0-6.188-6.188A6.195,6.195,0,0,0,985.318,565.275Zm-4.574-6.188a4.574,4.574,0,1,1,4.574,4.574A4.579,4.579,0,0,1,980.744,559.087Z" transform="translate(-129.781 0.353)" fill="#c1c7d0"/></g></svg>